<svg id="Layer_1" data-name="Layer 1" xmlns="http://www.w3.org/2000/svg" viewBox="0 0 427.29 164.31">
  <defs>
    <style>
      .cls-1, .cls-2 {
        font-size: 79.88px;
        font-family: Calibri;
        font-weight: 700;
      }

      .cls-1 {
        fill: #404041;
      }

      .cls-2, .cls-4, .cls-5 {
        fill: #df2027;
      }

      .cls-3 {
        letter-spacing: -1px;
      }

      .cls-5 {
        fill-rule: evenodd;
      }
    </style>
  </defs>
  <title>resume buddy svg</title>
  <text class="cls-1" transform="translate(163.35 139.85)">Buddy</text>
  <text class="cls-2" transform="translate(163.35 78.04)"><tspan class="cls-3">R</tspan><tspan x="43.8" y="0">esume</tspan></text>
  <g>
    <g>
      <path class="cls-4" d="M-82,14.22H-111.2a1.65,1.65,0,0,0-1.66,1.66,1.65,1.65,0,0,0,1.66,1.66H-82a1.65,1.65,0,0,0,1.66-1.66A1.66,1.66,0,0,0-82,14.22Z" transform="translate(171.18 88.1)"/>
      <path class="cls-4" d="M-82,7H-111.2a1.65,1.65,0,0,0-1.66,1.66,1.65,1.65,0,0,0,1.66,1.66H-82a1.65,1.65,0,0,0,1.66-1.66A1.66,1.66,0,0,0-82,7Z" transform="translate(171.18 88.1)"/>
      <path class="cls-4" d="M-96.61-28.07a7.14,7.14,0,0,0-7.12,7.12,7.13,7.13,0,0,0,7.12,7.11A7.14,7.14,0,0,0-89.49-21,7.13,7.13,0,0,0-96.61-28.07Z" transform="translate(171.18 88.1)"/>
      <path class="cls-4" d="M-87.16-10.26a26.18,26.18,0,0,0-18.89,0,5.28,5.28,0,0,0-3.3,4.91V1.38A1.65,1.65,0,0,0-107.71,3h22.19a1.65,1.65,0,0,0,1.66-1.66V-5.35A5.28,5.28,0,0,0-87.16-10.26Z" transform="translate(171.18 88.1)"/>
      <path class="cls-4" d="M-78.89-35h-27.52a4.73,4.73,0,0,0-3.37,1.39l-7.92,7.92a4.73,4.73,0,0,0-1.39,3.37v42a4.79,4.79,0,0,0,4.78,4.78h35.43A4.79,4.79,0,0,0-74.1,19.7V-30.23A4.83,4.83,0,0,0-78.89-35Zm-30.47,5.64v4.1h-4.1Zm31.93,12.06h-6.15a1.65,1.65,0,0,0-1.66,1.66A1.65,1.65,0,0,0-83.58-14h6.15v2.94h-2.25A1.65,1.65,0,0,0-81.34-9.4a1.65,1.65,0,0,0,1.66,1.66h2.25V19.71a1.47,1.47,0,0,1-1.46,1.47h-35.45a1.46,1.46,0,0,1-1.46-1.46V-22h8.09a1.65,1.65,0,0,0,1.66-1.66v-8.09h27.16a1.46,1.46,0,0,1,1.46,1.46v13Z" transform="translate(171.18 88.1)"/>
    </g>
    <path class="cls-5" d="M-140.62-72a3.4,3.4,0,0,1,1.23-4.65,3.4,3.4,0,0,1,4.64,1.26l4.88,8.4a3.4,3.4,0,0,1-1.23,4.65,3.4,3.4,0,0,1-4.64-1.26Z" transform="translate(171.18 88.1)"/>
    <path class="cls-5" d="M-100-84.69a3.4,3.4,0,0,1,3.39-3.41,3.4,3.4,0,0,1,3.39,3.41l0,9.71a3.4,3.4,0,0,1-3.39,3.41A3.4,3.4,0,0,1-100-75Z" transform="translate(171.18 88.1)"/>
    <path class="cls-5" d="M-76.22,58.37C-75,48.43-71.36,38.82-65.65,29c6.93-11.92,19.26-27,19.14-41.31-0.17-28-22.64-50.7-50.21-50.8s-50.06,22.81-50.23,50.8c0.61,14.45,11.25,27.78,19.13,41.19,5.66,9.61,9.7,19.29,10.83,29.51h0a64.22,64.22,0,0,1-43.8-60.88A64.19,64.19,0,0,1-96.6-66.69,64.19,64.19,0,0,1-32.41-2.51,64.22,64.22,0,0,1-76.22,58.37Z" transform="translate(171.18 88.1)"/>
    <path class="cls-5" d="M-169.47-40.65a3.4,3.4,0,0,1-1.26-4.64,3.4,3.4,0,0,1,4.65-1.23l8.42,4.84A3.4,3.4,0,0,1-156.4-37,3.4,3.4,0,0,1-161-35.81Z" transform="translate(171.18 88.1)"/>
    <path class="cls-5" d="M-23.72-40.65a3.4,3.4,0,0,0,1.26-4.64,3.4,3.4,0,0,0-4.65-1.23l-8.43,4.84A3.4,3.4,0,0,0-36.79-37a3.4,3.4,0,0,0,4.65,1.23Z" transform="translate(171.18 88.1)"/>
    <path class="cls-5" d="M-52.57-72a3.4,3.4,0,0,0-1.23-4.65,3.4,3.4,0,0,0-4.64,1.26L-63.33-67a3.4,3.4,0,0,0,1.23,4.65,3.4,3.4,0,0,0,4.64-1.26Z" transform="translate(171.18 88.1)"/>
  </g>
</svg>
